<?xml version="1.0" standalone="no"?>
<!DOCTYPE svg PUBLIC "-//W3C//DTD SVG 20010904//EN"
 "http://www.w3.org/TR/2001/REC-SVG-20010904/DTD/svg10.dtd">
<svg version="1.0" xmlns="http://www.w3.org/2000/svg"
 width="301.000000pt" height="301.000000pt" viewBox="0 0 301.000000 301.000000"
 preserveAspectRatio="xMidYMid meet">
<metadata>
Created by potrace 1.14, written by Peter Selinger 2001-2017
</metadata>
<g transform="translate(0.000000,301.000000) scale(0.100000,-0.100000)"
fill="#000000" stroke="none">
<path d="M777 2993 c-1 -1 -34 -3 -72 -4 -60 -2 -104 -9 -150 -23 -5 -2 -23
-6 -40 -11 -16 -4 -36 -12 -42 -18 -7 -5 -13 -7 -13 -3 0 9 -56 -21 -121 -65
-140 -95 -247 -245 -295 -414 -16 -54 -17 -144 -19 -932 l-2 -872 23 -89 c50
-200 165 -351 345 -456 61 -35 177 -75 242 -83 65 -8 1625 -9 1727 -1 230 18
465 181 564 392 34 73 56 126 51 126 -3 0 0 12 5 26 6 14 12 56 15 93 6 85 6
1572 0 1671 -7 126 -62 272 -140 375 -119 155 -276 248 -475 281 -37 6 -1598
13 -1603 7z"/>
</g>
</svg>
